<svg xmlns="http://www.w3.org/2000/svg" viewBox="0 0 64 64">
  <defs>
    <linearGradient id="bg" x1="0%" y1="0%" x2="100%" y2="100%">
      <stop offset="0%" stop-color="#ff7edb" />
      <stop offset="100%" stop-color="#38bdf8" />
    </linearGradient>
    <linearGradient id="spark" x1="0%" y1="0%" x2="100%" y2="100%">
      <stop offset="0%" stop-color="#fde047" />
      <stop offset="100%" stop-color="#2dd4bf" />
    </linearGradient>
  </defs>
  <rect width="64" height="64" rx="14" fill="url(#bg)" />
  <circle cx="50" cy="16" r="6" fill="url(#spark)" opacity="0.8" />
  <path d="M12 45 L12 19 L18 19 L30 38 L30 19 L34 19 L34 45 L28 45 L16 26 L16 45 Z" fill="#ffffff"/>
  <path d="M38 45 L38 19 L50 19 Q57 19 57 26 L57 33 Q57 40 50 40 L44 40 L44 45 Z M44 24 L44 34 L49.2 34 Q52 34 52 31 L52 27 Q52 24 48.8 24 Z" fill="#ffffff"/>
</svg>
